<svg xmlns="http://www.w3.org/2000/svg" width="45" height="45" viewBox="0 0 45 45">
  <g id="グループ_823" data-name="グループ 823" transform="translate(869 849)">
    <g id="グループ_786" data-name="グループ 786" transform="translate(-865 -841)">
      <path id="パス_713" data-name="パス 713" d="M-817.116,593.325" transform="translate(838.805 -586.19)"/>
      <g id="グループ_779" data-name="グループ 779" transform="translate(0 0)">
        <path id="パス_714" data-name="パス 714" d="M-860.351,590.227l19.3-11.125,19.3,11.125" transform="translate(860.351 -579.102)" fill="none" stroke="#231f20" stroke-miterlimit="10" stroke-width="1.496"/>
        <line id="線_34" data-name="線 34" y2="15.368" transform="translate(0.209 10.828)" fill="none" stroke="#231f20" stroke-miterlimit="10" stroke-width="1.484"/>
      </g>
      <g id="グループ_785" data-name="グループ 785" transform="translate(4.545 15.558)">
        <g id="グループ_782" data-name="グループ 782" transform="translate(20.451)">
          <g id="グループ_781" data-name="グループ 781" transform="translate(0 0.624)">
            <g id="グループ_780" data-name="グループ 780">
              <path id="パス_715" data-name="パス 715" d="M-805.508,616.476a2.467,2.467,0,0,0,1.931-2.47c0-1.693-1.078-2.646-3.448-2.646h-3.5v9.73h1.655v-4.351h1.379c.163,0,.3-.013.439-.013l1.968,4.363h1.818Zm-1.667-.99h-1.693v-2.859h1.768c1.342,0,1.831.539,1.831,1.4C-805.27,614.934-805.847,615.486-807.176,615.486Z" transform="translate(810.523 -611.36)"/>
            </g>
          </g>
          <path id="パス_716" data-name="パス 716" d="M-794.365,620.322c.013,1.3.589,2.169,1.73,2.169.715,0,1.216-.4,1.454-1.3l1.429.414a2.728,2.728,0,0,1-2.9,1.994c-2.056,0-3.26-1.316-3.26-3.573s1.267-3.636,3.122-3.636c1.755,0,3.072,1.279,3.072,3.611v.326Zm3.109-1.041c-.075-1.153-.564-1.805-1.5-1.805s-1.5.7-1.58,1.805Z" transform="translate(803.24 -613.24)"/>
        </g>
        <g id="グループ_784" data-name="グループ 784" transform="translate(9.095 1.745)">
          <rect id="長方形_4650" data-name="長方形 4650" width="7.306" height="7.306" transform="translate(9.646) rotate(90)"/>
          <rect id="長方形_4651" data-name="長方形 4651" width="0.932" height="4.089" transform="translate(4.089 3.204) rotate(90)"/>
          <g id="グループ_783" data-name="グループ 783" transform="translate(8.257 1.727)">
            <rect id="長方形_4652" data-name="長方形 4652" width="0.932" height="4.089" transform="translate(4.089) rotate(90)"/>
            <rect id="長方形_4653" data-name="長方形 4653" width="0.932" height="4.089" transform="translate(4.089 2.921) rotate(90)"/>
          </g>
        </g>
        <text id="C" transform="translate(0 9.711)" font-size="12" font-family="Helvetica"><tspan x="0" y="0">C</tspan></text>
      </g>
    </g>
    <rect id="長方形_4673" data-name="長方形 4673" width="45" height="45" transform="translate(-869 -849)" fill="none"/>
  </g>
</svg>
