<svg xmlns="http://www.w3.org/2000/svg" width="45" height="45" viewBox="0 0 45 45">
  <g id="グループ_822" data-name="グループ 822" transform="translate(738 607)">
    <g id="グループ_794" data-name="グループ 794" transform="translate(-735 -599)">
      <path id="パス_718" data-name="パス 718" d="M-919.692,661.086" transform="translate(941.38 -653.951)"/>
      <g id="グループ_787" data-name="グループ 787" transform="translate(0 0)">
        <path id="パス_719" data-name="パス 719" d="M-962.926,657.988l19.3-11.125,19.3,11.125" transform="translate(962.926 -646.863)" fill="none" stroke="#fff" stroke-miterlimit="10" stroke-width="1.496"/>
        <line id="線_35" data-name="線 35" y2="15.368" transform="translate(0.209 10.828)" fill="none" stroke="#fff" stroke-miterlimit="10" stroke-width="1.484"/>
      </g>
      <g id="グループ_793" data-name="グループ 793" transform="translate(4.545 15.558)">
        <g id="グループ_790" data-name="グループ 790" transform="translate(20.45)">
          <g id="グループ_789" data-name="グループ 789" transform="translate(0 0.624)">
            <g id="グループ_788" data-name="グループ 788">
              <path id="パス_720" data-name="パス 720" d="M-908.083,684.237a2.468,2.468,0,0,0,1.931-2.47c0-1.693-1.078-2.646-3.448-2.646h-3.5v9.73h1.655V684.5h1.379c.163,0,.3-.012.439-.012l1.969,4.363h1.818Zm-1.667-.991h-1.693v-2.859h1.768c1.341,0,1.831.539,1.831,1.4C-907.845,682.695-908.422,683.247-909.751,683.247Z" transform="translate(913.099 -679.121)" fill="#fff"/>
            </g>
          </g>
          <path id="パス_721" data-name="パス 721" d="M-896.941,688.083c.013,1.3.589,2.169,1.731,2.169.714,0,1.216-.4,1.454-1.3l1.429.414a2.728,2.728,0,0,1-2.9,1.994c-2.056,0-3.26-1.316-3.26-3.573s1.267-3.636,3.122-3.636c1.755,0,3.072,1.279,3.072,3.611v.326Zm3.11-1.041c-.075-1.153-.564-1.805-1.5-1.805s-1.5.7-1.58,1.805Z" transform="translate(905.815 -681.001)" fill="#fff"/>
        </g>
        <g id="グループ_792" data-name="グループ 792" transform="translate(9.095 1.746)">
          <rect id="長方形_4654" data-name="長方形 4654" width="7.306" height="7.306" transform="translate(9.646) rotate(90)" fill="#fff"/>
          <rect id="長方形_4655" data-name="長方形 4655" width="0.932" height="4.089" transform="translate(4.089 3.204) rotate(90)" fill="#fff"/>
          <g id="グループ_791" data-name="グループ 791" transform="translate(8.257 1.727)">
            <rect id="長方形_4656" data-name="長方形 4656" width="0.932" height="4.089" transform="translate(4.089) rotate(90)" fill="#fff"/>
            <rect id="長方形_4657" data-name="長方形 4657" width="0.932" height="4.089" transform="translate(4.089 2.921) rotate(90)" fill="#fff"/>
          </g>
        </g>
        <text id="C" transform="translate(0 9.712)" fill="#fff" font-size="12" font-family="Helvetica"><tspan x="0" y="0">C</tspan></text>
      </g>
    </g>
    <rect id="長方形_4659" data-name="長方形 4659" width="45" height="45" transform="translate(-738 -607)" fill="none"/>
  </g>
</svg>
