<svg xmlns="http://www.w3.org/2000/svg" width="119.06" height="85.04" viewBox="0 0 119.06 85.04">
  <g id="レイヤー_2" data-name="レイヤー 2">
    <g id="Calque_1" data-name="Calque 1">
      <g>
        <g>
          <path d="M59.53,50.52,111.22,6.27a5.9,5.9,0,0,0-3.77-1.41H11.6A5.92,5.92,0,0,0,7.83,6.27Z" style="fill: #fff"/>
          <g>
            <path d="M113.74,74.51a8.75,8.75,0,0,0,.21-1.78V13.24L83,39.73Z" style="fill: #fff"/>
            <path d="M77.67,44.29,59.53,59.82,41.38,44.29,9.93,79.9a5.84,5.84,0,0,0,1.67.28h95.85a5.91,5.91,0,0,0,1.68-.28Z" style="fill: #fff"/>
            <path d="M36.06,39.73,5.11,13.24V72.73a8.75,8.75,0,0,0,.2,1.78Z" style="fill: #fff"/>
          </g>
        </g>
        <rect width="119.06" height="85.04" style="fill: none"/>
      </g>
    </g>
  </g>
</svg>
